<svg xmlns="http://www.w3.org/2000/svg" width="58" height="53" viewBox="0 0 58 53" version="1.1">
	<path d="M 26.701 0.632 C 26.316 1.018, 26 2.608, 26 4.167 C 26 6.867, 25.784 7, 21.406 7 C 17.753 7, 16.712 7.384, 16.322 8.878 C 16.052 9.911, 14.799 11.226, 13.538 11.801 C 6.486 15.014, 0.067 24.031, 0.022 30.790 C -0.005 34.797, 3.035 41.004, 6.749 44.527 C 19.521 56.640, 44.433 54.578, 53.750 40.637 C 60.814 30.068, 56.647 18.557, 43.250 11.629 C 41.462 10.705, 40 9.285, 40 8.474 C 40 7.397, 38.806 7, 35.563 7 C 31.291 7, 31.115 6.880, 30.813 3.758 C 30.515 0.667, 28.329 -0.995, 26.701 0.632 M 18.060 15.301 C 13.699 16.692, 6.378 23.645, 5.472 27.257 C 3.724 34.221, 8.331 41.442, 17 45.326 C 20.277 46.794, 23.571 47.331, 29.120 47.304 C 35.571 47.271, 37.562 46.823, 42.092 44.383 C 51.770 39.169, 54.758 30.523, 49.537 22.840 C 45.426 16.790, 31 11.078, 31 15.500 C 31 16.341, 30.108 17, 28.969 17 C 27.851 17, 26.678 16.325, 26.362 15.500 C 25.703 13.785, 23.016 13.721, 18.060 15.301 M 13.410 27.375 C 12.211 30.498, 13.424 32.500, 16.514 32.500 C 19.165 32.500, 19.500 32.164, 19.500 29.500 C 19.500 26.969, 19.069 26.450, 16.744 26.183 C 14.986 25.981, 13.779 26.412, 13.410 27.375 M 37.930 27.584 C 36.978 28.732, 36.905 29.626, 37.665 30.834 C 39.157 33.202, 42.146 33.521, 43.645 31.471 C 46.421 27.675, 40.946 23.951, 37.930 27.584" stroke="none" fill="black" fill-rule="evenodd"/>
</svg>